<svg width="32" height="32" viewBox="0 0 32 32" fill="none" xmlns="http://www.w3.org/2000/svg">
  <rect width="32" height="32" rx="8" fill="#7c3aed"/>
  <svg x="8" y="2" width="18" height="28" viewBox="0 0 207 304" fill="none">
    <path d="M25.8384 196.911L15.4739 183.729C-10.7189 150.411 0.44781 101.422 38.4895 82.7344L206.266 0.307297V34.2396C206.266 60.1875 191.448 83.8698 168.12 95.2396L56.578 149.594C48.4634 153.547 41.3489 159.344 35.9791 166.609C30.5936 173.901 25.9582 183.906 26.3176 196.526C29.9947 193.609 34.0624 191.026 38.4843 188.854L206.26 106.432V140.359C206.26 166.313 191.437 189.995 168.109 201.365L56.578 255.708C48.4634 259.667 41.3489 265.464 35.9791 272.724C30.4426 280.224 25.6978 290.578 26.3593 303.693L15.4739 289.854C-7.54698 260.568 -1.72407 219.193 25.8384 196.911ZM134.818 266.526L206.208 303.724L206.187 210.802L134.953 246.661C126.828 250.755 126.755 262.323 134.818 266.526Z" fill="white"/>
  </svg>
</svg>
